<svg width="26" height="26" viewBox="0 0 26 26" fill="none" xmlns="http://www.w3.org/2000/svg">
<path d="M8.125 0.5H17.875C22.0855 0.5 25.5 3.91452 25.5 8.125V17.875C25.5 22.0855 22.0855 25.5 17.875 25.5H8.125C3.91452 25.5 0.5 22.0855 0.5 17.875V8.125C0.5 3.91452 3.91452 0.5 8.125 0.5ZM17.875 24.0625C21.2874 24.0625 24.0625 21.2874 24.0625 17.875V8.125C24.0625 4.71261 21.2874 1.9375 17.875 1.9375H8.125C4.71261 1.9375 1.9375 4.71261 1.9375 8.125V17.875C1.9375 21.2874 4.71261 24.0625 8.125 24.0625H17.875Z" stroke="white" stroke-opacity="0.6"/>
<path d="M13 6.5C9.41037 6.5 6.5 9.41037 6.5 13C6.5 16.5896 9.41037 19.5 13 19.5C16.5896 19.5 19.5 16.5896 19.5 13C19.5 9.41037 16.5896 6.5 13 6.5ZM13 17.0625C10.7607 17.0625 8.9375 15.2393 8.9375 13C8.9375 10.7591 10.7607 8.9375 13 8.9375C15.2393 8.9375 17.0625 10.7591 17.0625 13C17.0625 15.2393 15.2393 17.0625 13 17.0625Z" fill="white" fill-opacity="0.6"/>
<path d="M19.9854 6.87891C20.4637 6.87891 20.8515 6.49114 20.8515 6.01279C20.8515 5.53444 20.4637 5.14667 19.9854 5.14667C19.507 5.14667 19.1192 5.53444 19.1192 6.01279C19.1192 6.49114 19.507 6.87891 19.9854 6.87891Z" fill="white" fill-opacity="0.6"/>
</svg>
